<?xml version="1.0" encoding="UTF-8"?>
<svg width="701px" height="88px" viewBox="0 0 701 88" version="1.1" xmlns="http://www.w3.org/2000/svg" xmlns:xlink="http://www.w3.org/1999/xlink">
    <defs></defs>
    <g id="MASTER" stroke="none" stroke-width="1" fill="none" fill-rule="evenodd">
        <g id="DEV_BRANDING" transform="translate(-40.000000, -250.000000)" fill="#000000">
            <g id="LOGO_LAT_k" transform="translate(40.000000, 250.000000)">
                <path d="M627.951816,63.2386207 C625.154023,65.5994483 619.503816,70.6093793 616.883034,73.1441839 C614.435218,70.9583448 609.347402,66.965977 606.200644,64.6941609 L606.200644,64.3067586 C607.108966,64.0002759 607.753287,63.1587126 607.753287,61.1023448 L607.753287,36.8264828 C605.220506,34.9916322 600.461425,32.0694253 597.752644,30.3215632 L595.615356,32.3607356 L595.615356,62.2685977 L599.88892,65.4730115 C599.88892,65.4730115 593.965609,70.6093793 591.344828,73.1441839 C588.985011,70.8713563 585.458943,68.2202299 582.314207,65.8594023 L582.314207,65.5691034 C583.222529,65.2636322 583.866851,64.3249655 583.866851,62.2685977 L583.866851,36.8264828 C581.332046,34.9916322 576.672092,32.0694253 573.96331,30.3215632 L571.341517,32.5549425 L571.341517,62.2685977 L575.61508,65.4730115 C575.61508,65.4730115 569.857655,70.2715402 567.068966,73.0470805 C564.447172,70.6862529 561.531034,68.5368276 558.038345,65.8594023 L558.038345,65.6662069 C559.019494,65.2646437 559.590989,64.0498391 559.590989,62.6549885 L559.590989,33.4278621 L556.096276,30.3215632 L553.377379,32.652046 L552.309241,31.4868046 C554.931034,29.301977 559.620322,25.0678621 563.378023,21.4851494 L571.341517,28.6708046 L571.341517,30.709977 L582.12,21.4851494 C585.528736,23.931954 595.615356,30.3215632 595.615356,30.3215632 L606.007448,21.4851494 C609.328184,24.1069425 616.959908,28.8447816 621.153563,31.2925977 L621.153563,31.6810115 C619.75669,32.0552644 619.60092,33.8263908 619.60092,34.7873103 L619.60092,61.1023448 L624.067678,64.5009655 L626.689471,62.1714943 L627.951816,63.2386207" id="Fill-1"></path>
                <path d="M552.988966,11.9690115 C550.193195,15.9017011 547.921379,17.6981149 543.375724,17.6981149 C540.316966,17.6981149 538.152368,16.2992184 535.704552,13.3284598 L533.179862,15.756046 L532.112736,14.3965977 L543.085425,4.58914943 C546.143172,10.7936552 549.824,11.6675862 552.794759,11.5805977 L552.988966,11.9690115" id="Fill-2"></path>
                <path d="M555.805977,63.2386207 C552.745195,65.8594023 547.620966,70.3676322 544.831264,73.1441839 C542.209471,70.7833563 537.74069,67.3715862 534.248,64.6941609 L534.248,64.4038621 C535.230161,64.0022989 535.800644,62.7895172 535.800644,61.3926437 L535.800644,33.4278621 L532.305931,30.3215632 L529.588046,32.652046 L528.518897,31.4868046 C531.14069,29.301977 535.830989,25.0678621 539.58869,21.4851494 L549.104828,29.9331494 L549.104828,30.3215632 C547.96892,30.6705287 547.552184,31.4008276 547.552184,34.0114943 L547.552184,61.1023448 L552.115034,64.3067586 L554.639724,62.0743908 L555.805977,63.2386207" id="Fill-3"></path>
                <path d="M368.882851,63.2386207 C365.824092,65.8594023 360.701885,70.3676322 357.910161,73.1441839 C355.288368,70.7833563 350.820598,67.3715862 347.326897,64.6941609 L347.326897,64.4038621 C348.308046,64.0022989 348.87954,62.7895172 348.87954,61.3926437 L348.87954,16.0473563 L345.384828,12.940046 L342.66492,15.2705287 L341.597793,14.1052874 C344.219586,11.9204598 348.326253,7.78344828 352.083954,4.20073563 L362.181701,12.6487356 L362.181701,13.0371494 C361.046805,13.3861149 360.629057,14.1164138 360.629057,16.7270805 L360.629057,61.1023448 L365.191908,64.3067586 L367.813701,62.0743908 L368.882851,63.2386207" id="Fill-4"></path>
                <path d="M264.207356,63.2386207 C261.410575,65.5994483 255.85646,70.6093793 253.234667,73.1441839 C250.787862,70.9583448 245.796138,66.965977 242.650391,64.6941609 L242.650391,64.3067586 C243.559724,64.0002759 244.204046,63.1587126 244.204046,61.1023448 L244.204046,36.8264828 C241.669241,34.9916322 237.008276,32.0694253 234.299494,30.3215632 C233.746207,30.7322299 232.245149,32.0411034 231.677701,32.5549425 L231.677701,62.2685977 L235.950253,65.4730115 C235.950253,65.4730115 230.098759,70.2715402 227.308046,73.0470805 C224.686253,70.6862529 221.86823,68.5368276 218.374529,65.8594023 L218.374529,65.6662069 C219.35669,65.2646437 219.928184,64.0498391 219.928184,62.6549885 L219.928184,33.4278621 L216.335356,30.2244598 L213.713563,32.5549425 L212.548322,31.3897011 C215.170115,29.2048736 219.957517,25.0678621 223.715218,21.4851494 L231.677701,28.6708046 L231.677701,30.709977 L242.456184,21.4851494 C245.77692,24.1069425 253.312552,28.8447816 257.507218,31.2925977 L257.507218,31.6810115 C256.110345,32.0552644 255.953563,33.8263908 255.953563,34.7873103 L255.953563,61.1023448 L260.517425,64.4038621 L263.042115,62.0743908 L264.207356,63.2386207" id="Fill-5"></path>
                <path d="M687.572322,65.9585287 L687.572322,51.8785287 C685.913471,51.0925977 683.388782,50.0001839 681.747126,49.1586207 L668.249747,63.1415172 L668.637149,63.2386207 C670.687448,62.121931 672.501057,60.7129195 676.696736,60.7129195 C680.980414,60.7129195 685.329839,63.8151724 687.377103,66.0556322 L687.572322,65.9585287 Z M700.777379,60.5197241 C693.961931,63.4914943 684.105931,68.8584828 679.318529,73.1441839 C676.870713,70.7833563 673.666299,68.5803218 669.412966,68.5803218 C665.42869,68.5803218 663.586759,70.039908 663.586759,71.3953103 C663.586759,72.2388966 665.238529,72.1245977 665.238529,73.3373793 C665.238529,73.8967356 664.817747,74.5026207 664.073287,74.5026207 C663.14069,74.5026207 661.938023,73.1755402 661.938023,71.4924138 C661.938023,68.3466667 663.563494,65.6206897 668.540046,60.4226207 L677.279356,51.295908 C673.670345,49.4509425 668.457103,47.1295632 665.528828,45.8571034 L665.528828,45.4686897 C666.380506,45.2269425 666.987402,44.3388506 666.987402,43.3314023 L666.987402,35.8554483 C666.987402,35.030069 666.577747,33.7778391 665.528828,33.4278621 L665.528828,33.0404598 C672.870253,30.4186667 682.242759,25.1457471 687.572322,21.388046 C688.765885,22.7161379 691.877241,25.5634943 695.243494,25.5634943 C698.078713,25.5634943 698.738207,24.1261609 698.738207,23.135908 C698.738207,22.5735172 697.672092,22.261977 697.672092,21.388046 C697.672092,20.6405517 698.080736,20.319908 698.642115,20.319908 C699.477609,20.319908 700.196782,21.1584368 700.196782,22.7474943 C700.196782,27.4661149 695.728,33.7201839 688.639448,33.7201839 C683.977471,33.7201839 681.114943,31.3411494 678.929103,28.2823908 L678.735908,28.3794943 L678.735908,40.128 L685.144736,43.2353103 L688.058851,40.2251034 C691.083218,42.1408736 697.436414,45.496 700.777379,46.9252414 L700.777379,47.2165517 C700.122943,47.4926897 699.224736,48.2452414 699.224736,49.6441379 L699.224736,57.897931 C699.224736,59.0813793 700.166437,59.8703448 700.777379,60.1302989 L700.777379,60.5197241 L700.777379,60.5197241 Z" id="Fill-6"></path>
                <path d="M651.450851,42.3613793 C649.003034,38.9536552 644.643494,32.7875862 641.934713,28.767908 L641.642391,28.8650115 L641.642391,48.5749885 L651.450851,42.3613793 Z M662.421517,37.4091034 L641.642391,50.3238621 L641.642391,59.1602759 C644.264184,60.2961839 650.109609,63.1516322 652.907402,64.9864828 L657.374161,60.4226207 C658.610207,59.1602759 658.19954,57.1221149 660.384368,57.1221149 C660.99531,57.1221149 661.451494,57.4913103 661.451494,58.1882299 C661.451494,58.9337011 660.937655,59.2867126 660.578575,59.6468046 L646.984092,73.1441839 C642.351448,70.1703908 632.971862,65.8422069 628.341241,63.9173333 L628.341241,63.5309425 C629.087724,63.2497471 629.990989,62.7348966 629.990989,60.812046 L629.990989,36.2438621 C629.990989,34.234023 629.190897,33.5907126 628.341241,33.4278621 L628.341241,33.0404598 C635.33269,30.7676322 645.994851,25.0678621 651.062437,21.4851494 C654.559172,26.7287356 659.102805,33.2144368 662.421517,37.4091034 L662.421517,37.4091034 Z" id="Fill-7"></path>
                <path d="M518.323034,63.2386207 L518.323034,18.8633563 C517.800092,18.9007816 516.918069,18.9604598 516.380966,18.9604598 C513.377839,18.9604598 508.137287,17.7851034 504.729563,16.8241839 C494.590345,18.6590345 482.784184,27.2415632 482.784184,43.3314023 C482.784184,57.1312184 492.618943,65.9585287 506.572506,65.9585287 C511.294161,65.9585287 515.425103,64.9632184 518.323034,63.2386207 Z M530.460966,7.01673563 C530.460966,14.0547126 525.285149,17.6202299 519.779586,18.6691494 L519.779586,62.6549885 C526.860046,58.7243218 528.325701,54.4032184 528.325701,52.3630345 C528.325701,51.92 527.450759,51.3151264 527.450759,50.5170575 C527.450759,49.8970115 528.165885,49.3538391 528.713103,49.3538391 C529.511172,49.3538391 529.878345,50.0811034 529.878345,51.3930115 C529.878345,61.6182069 520.089103,75.3765517 499.292782,75.3765517 C483.687448,75.3765517 470.451034,63.1233103 470.451034,47.3136552 C470.451034,24.7674483 489.387218,16.9303908 502.497195,16.1444598 C497.690575,15.0955402 489.953655,13.4255632 483.561011,13.4255632 C476.132598,13.4255632 470.063632,17.8437701 470.063632,21.7764598 C470.063632,23.2613333 471.229885,23.5435402 471.229885,24.5924598 C471.229885,25.170023 470.956782,25.8548046 470.160736,25.8548046 C468.937839,25.8548046 468.510989,24.5762759 468.510989,23.6214253 C468.510989,15.056092 474.050943,2.84128736 486.958621,2.84128736 C500.045333,2.84128736 509.98023,7.59935632 520.168,7.59935632 C526.904552,7.59935632 528.97508,5.22032184 528.713103,1.28763218 L529.781241,1.77314943 C530.042207,2.38510345 530.460966,4.39190805 530.460966,7.01673563 L530.460966,7.01673563 Z" id="Fill-8"></path>
                <path d="M429.862805,65.9585287 L429.862805,51.8785287 C428.202943,51.0925977 425.678253,50.0001839 424.038621,49.1586207 L410.54023,63.1415172 L410.928644,63.2386207 C412.979954,62.121931 414.793563,60.7129195 418.989241,60.7129195 C423.269885,60.7129195 427.620322,63.8151724 429.669609,66.0556322 L429.862805,65.9585287 Z M443.069885,60.5197241 C436.251402,63.4914943 426.395402,68.8584828 421.611034,73.1441839 C419.161195,70.7833563 415.956782,68.5803218 411.705471,68.5803218 C407.718161,68.5803218 405.879264,70.039908 405.879264,71.3953103 C405.879264,72.2388966 407.529011,72.1245977 407.529011,73.3373793 C407.529011,73.8967356 407.10823,74.5026207 406.365793,74.5026207 C405.433195,74.5026207 404.227494,73.1755402 404.227494,71.4924138 C404.227494,68.3466667 405.853977,65.6206897 410.832552,60.4226207 L419.569839,51.295908 C415.960828,49.4509425 410.749609,47.1295632 407.821333,45.8571034 L407.821333,45.4686897 C408.670989,45.2269425 409.276874,44.3388506 409.276874,43.3314023 L409.276874,35.8554483 C409.276874,35.030069 408.870253,33.7778391 407.821333,33.4278621 L407.821333,33.0404598 C415.162759,30.4186667 424.53223,25.1457471 429.862805,21.388046 C431.058391,22.7161379 434.167724,25.5634943 437.533977,25.5634943 C440.371218,25.5634943 441.02869,24.1261609 441.02869,23.135908 C441.02869,22.5735172 439.961563,22.261977 439.961563,21.388046 C439.961563,20.6405517 440.373241,20.319908 440.931586,20.319908 C441.770115,20.319908 442.486253,21.1584368 442.486253,22.7474943 C442.486253,27.4661149 438.018483,33.7201839 430.931954,33.7201839 C426.266943,33.7201839 423.406437,31.3411494 421.221609,28.2823908 L421.028414,28.3794943 L421.028414,40.128 L427.435218,43.2353103 L430.348322,40.2251034 C433.373701,42.1408736 439.726897,45.496 443.069885,46.9252414 L443.069885,47.2165517 C442.413425,47.4926897 441.515218,48.2452414 441.515218,49.6441379 L441.515218,57.897931 C441.515218,59.0813793 442.45692,59.8703448 443.069885,60.1302989 L443.069885,60.5197241 L443.069885,60.5197241 Z" id="Fill-9"></path>
                <path d="M394.031632,42.3613793 C391.585839,38.9536552 387.226299,32.7875862 384.515494,28.767908 L384.225195,28.8650115 L384.225195,48.5749885 L394.031632,42.3613793 Z M404.907218,37.4091034 L384.225195,50.3238621 L384.225195,59.1602759 C386.846989,60.2961839 392.692414,63.1516322 395.490207,64.9864828 L399.956966,60.4226207 C401.190989,59.1602759 400.782345,57.1221149 402.965149,57.1221149 C403.578115,57.1221149 403.937195,57.4913103 403.937195,58.1882299 C403.937195,58.9337011 403.421333,59.2867126 403.062253,59.6468046 L389.564874,73.1441839 C384.934253,70.1703908 375.554667,65.8422069 370.922023,63.9173333 L370.922023,63.5309425 C371.670529,63.2497471 372.47669,62.7348966 372.47669,60.812046 L372.47669,36.2438621 C372.47669,34.234023 371.77269,33.5907126 370.922023,33.4278621 L370.922023,33.0404598 C377.913471,30.7676322 388.575632,25.0678621 393.64423,21.4851494 C397.138943,26.7287356 401.586483,33.2144368 404.907218,37.4091034 L404.907218,37.4091034 Z" id="Fill-10"></path>
                <path d="M334.800552,42.3613793 C332.353747,38.9536552 327.993195,32.7875862 325.284414,28.767908 L325.090207,28.8650115 L325.090207,48.5749885 L334.800552,42.3613793 Z M345.774253,37.4091034 L325.090207,50.3238621 L325.090207,59.1602759 C327.712,60.2961839 333.557425,63.1516322 336.354207,64.9864828 L340.820966,60.4226207 C342.057011,59.1602759 341.549241,57.1221149 343.734069,57.1221149 C344.346023,57.1221149 344.802207,57.4913103 344.802207,58.1882299 C344.802207,58.9337011 344.287356,59.2867126 343.928276,59.6468046 L330.430897,73.1441839 C325.799264,70.1703908 316.418667,65.8422069 311.787034,63.9173333 L311.787034,63.5309425 C312.53554,63.2497471 313.34069,62.7348966 313.34069,60.812046 L313.34069,36.2438621 C313.34069,34.234023 312.63669,33.5907126 311.787034,33.4278621 L311.787034,33.0404598 C318.778483,30.7676322 329.440644,25.0678621 334.509241,21.4851494 C338.004966,26.7287356 342.452506,33.2144368 345.774253,37.4091034 L345.774253,37.4091034 Z" id="Fill-11"></path>
                <path d="M292.172138,64.6941609 L292.172138,37.215908 C288.764414,35.2930575 283.210299,31.418023 279.451586,28.1852874 L279.257379,28.2823908 L279.257379,58.9670805 C282.666115,60.539954 288.278897,63.8404598 290.81269,65.7633103 L292.172138,64.6941609 Z M308.582621,69.260046 C308.302437,80.3561379 302.82823,88 292.463448,88 C284.354299,88 278.37131,83.8255632 271.003586,83.8255632 C266.713839,83.8255632 264.350989,85.1455632 263.139218,86.6405517 L262.653701,86.3502529 C263.090667,78.3078621 268.780322,73.8228966 276.052966,73.8228966 C284.070069,73.8228966 289.902345,78.9693793 298.386759,78.9693793 C303.805333,78.9693793 306.602115,76.1250575 307.126069,73.2402759 L307.028966,73.0470805 C305.893057,73.744 304.455724,74.5997241 302.270897,74.5997241 C297.90023,74.5997241 293.153287,71.5794023 292.366345,66.2488276 C290.279632,67.7033563 285.583264,71.3437241 283.529931,73.1441839 C278.408736,69.8345747 270.165057,65.7076782 266.149425,63.9173333 L266.149425,63.5309425 C266.985931,63.2558161 267.508874,62.2190345 267.508874,61.1994483 L267.508874,36.1467586 C267.508874,34.6588506 266.976828,33.6149885 265.955218,33.4278621 L265.955218,33.0404598 C273.382621,30.3306667 282.938207,25.3106207 288.093793,21.2909425 C292.563586,24.8271264 300.691954,29.8137931 305.47531,32.5549425 L305.47531,33.0404598 C304.426391,33.4774253 303.921655,34.1773793 303.921655,36.5361839 L303.921655,63.5309425 C303.921655,66.9953103 304.232184,69.3561379 306.737655,69.3561379 C307.136184,69.3561379 307.650023,69.0162759 308,68.5803218 L308.582621,69.260046 L308.582621,69.260046 Z" id="Fill-12"></path>
                <path d="M190.992368,44.4005517 L181.961747,16.8241839 L172.154299,44.4005517 L190.992368,44.4005517 Z M217.209287,62.5588966 L205.75108,73.1441839 C202.430345,70.7833563 199.55669,68.8706207 195.361011,66.2488276 L195.361011,65.7633103 C196.312828,65.4173793 196.807448,64.4635402 196.817563,63.3367356 C196.822621,62.8411034 196.789241,62.304 196.623356,61.782069 L193.224736,51.1006897 L169.629609,51.1006897 L166.522299,60.0342069 C171.378483,60.0342069 174.254161,60.7867586 176.621057,61.782069 L178.66023,57.9950345 L180.116782,58.7718621 L172.348506,73.2402759 C169.168368,71.4307126 165.635218,70.0358621 161.570023,70.0358621 C156.77554,70.0358621 153.145287,71.2830345 151.374161,72.949977 C151.020138,73.2837701 150.486069,73.1947586 150.694437,72.4644598 C152.616276,65.7349885 157.449195,60.6026667 164.87154,60.1302989 L181.282023,14.687908 C179.446161,9.35632184 177.426207,8.27908046 173.31954,8.27908046 C169.471816,8.27908046 165.745471,10.0653793 165.745471,14.7850115 C165.745471,16.9698391 167.881747,16.7837241 167.881747,18.3778391 C167.881747,18.9361839 167.363862,19.5430805 166.619402,19.5430805 C165.220506,19.5430805 164.28892,17.6778851 164.28892,14.0081839 C164.28892,5.70583908 170.590529,0.802114943 177.494989,0.802114943 C183.786483,0.802114943 186.253517,3.22970115 188.176368,5.85149425 C188.78731,3.40468966 191.263448,2.26777011 193.127632,1.96735632 L193.321839,2.25866667 C192.156598,3.70409195 191.476874,4.98666667 191.476874,6.82252874 C191.476874,7.77636782 192.182897,9.93793103 192.447908,10.7066667 L210.120736,61.782069 L213.325149,63.8212414 L216.044046,61.2965517 L217.209287,62.5588966 L217.209287,62.5588966 Z" id="Fill-13"></path>
                <path d="M118.261885,65.9585287 L118.261885,51.8785287 C116.602023,51.0925977 114.175448,50.0001839 112.533793,49.1586207 L98.9393103,63.1415172 L99.4248276,63.2386207 C101.475126,62.121931 103.288736,60.7129195 107.484414,60.7129195 C111.766069,60.7129195 116.019402,63.8151724 118.067678,66.0556322 L118.261885,65.9585287 Z M131.467954,60.5197241 C124.651494,63.4914943 114.892598,68.8584828 110.106207,73.1441839 C107.658391,70.7833563 104.355862,68.5803218 100.104552,68.5803218 C96.1182529,68.5803218 94.3754483,70.039908 94.3754483,71.3953103 C94.3754483,72.2388966 96.0262069,72.1245977 96.0262069,73.3373793 C96.0262069,73.8967356 95.5083218,74.5026207 94.7638621,74.5026207 C93.8312644,74.5026207 92.6275862,73.1755402 92.6275862,71.4924138 C92.6275862,68.3466667 94.3501609,65.6206897 99.3277241,60.4226207 L108.067034,51.295908 C104.458023,49.4509425 99.1466667,47.1295632 96.2204138,45.8571034 L96.2204138,45.4686897 C97.070069,45.2269425 97.774069,44.3388506 97.774069,43.3314023 L97.774069,35.8554483 C97.774069,35.030069 97.2683218,33.7778391 96.2204138,33.4278621 L96.2204138,33.0404598 C103.560828,30.4186667 112.93131,25.1457471 118.261885,21.388046 C119.457471,22.7161379 122.566805,25.5634943 125.933057,25.5634943 C128.769287,25.5634943 129.428782,24.1261609 129.428782,23.135908 C129.428782,22.5735172 128.457747,22.261977 128.457747,21.388046 C128.457747,20.6405517 128.77131,20.319908 129.331678,20.319908 C130.168184,20.319908 130.982437,21.1584368 130.982437,22.7474943 C130.982437,27.4661149 126.417563,33.7201839 119.330023,33.7201839 C114.666023,33.7201839 111.805517,31.3411494 109.62069,28.2823908 L109.426483,28.3794943 L109.426483,40.128 L115.931402,43.2353103 L118.844506,40.2251034 C121.869885,42.1408736 128.126989,45.496 131.467954,46.9252414 L131.467954,47.2165517 C130.813517,47.4926897 130.011402,48.2452414 130.011402,49.6441379 L130.011402,57.897931 C130.011402,59.0813793 130.856,59.8703448 131.467954,60.1302989 L131.467954,60.5197241 L131.467954,60.5197241 Z" id="Fill-14"></path>
                <path d="M78.062069,66.0556322 L78.062069,37.215908 C74.0423908,35.030069 68.1382989,30.632092 65.3415172,28.1852874 L65.1473103,28.2823908 L65.1473103,57.7027126 C68.992,59.8025747 74.7221149,63.443954 77.8678621,66.1517241 L78.062069,66.0556322 Z M91.3652414,60.5197241 C85.5198161,62.9078621 74.2163678,68.8605057 69.3227586,73.1441839 C64.1661609,69.3864828 56.6295172,64.4291494 51.8441379,61.6849655 L51.8441379,61.3926437 C53.068046,60.9566897 53.3977931,60.0635402 53.3977931,58.5776552 L53.3977931,36.5361839 C53.3977931,34.5091494 52.8930575,33.7778391 51.8441379,33.4278621 L51.8441379,33.0404598 C59.8845057,30.0686897 67.5172414,25.8446897 73.9837241,21.388046 C78.4403678,24.7087816 86.2096552,29.5932874 91.3652414,32.652046 L91.3652414,33.0404598 C90.4326437,33.4147126 89.8115862,34.3705747 89.8115862,35.8554483 L89.8115862,57.7027126 C89.8115862,59.2776092 90.4033103,59.8703448 91.3652414,60.1302989 L91.3652414,60.5197241 L91.3652414,60.5197241 Z" id="Fill-15"></path>
                <path d="M30.2871724,57.5095172 L30.2871724,16.629977 C24.5530115,16.0028506 21.6287816,11.8112184 19.703908,9.54142529 L14.1690115,14.0081839 C14.1993563,20.2268506 16.020046,25.6545287 18.1492414,30.6128736 C20.0973793,35.1453793 22.2285977,41.014069 22.2285977,45.0802759 C22.2285977,51.7763678 18.5285517,56.0054253 9.70225287,64.3067586 L9.99356322,64.5970575 C15.2371494,60.6663908 23.2421149,57.6298851 30.2871724,57.5095172 Z M51.2615172,58.1882299 L43.0077241,73.4344828 C38.5187126,70.3049195 31.3532874,68.384092 25.2388046,68.384092 C13.1787586,68.384092 4.85618391,70.5325057 0.574528736,73.2402759 L0.0890114943,72.6576552 C3.91347126,69.3106207 10.2848736,63.9314943 10.2848736,51.6833103 C10.2848736,46.5226667 8.19816092,40.6752184 6.69204598,36.8264828 C4.94924138,32.3728736 3.58473563,30.0342989 3.58473563,23.8156322 C3.58473563,12.9906207 9.39577011,6.87714943 18.5386667,2.25866667 L19.3154943,3.1325977 C16.1606437,5.75742529 14.6353103,9.13581609 14.1690115,12.5516322 L28.8316322,0.316597701 C32.5731494,5.57333333 36.0688736,7.59935632 40.6772414,7.59935632 C44.4602299,7.59935632 45.5334253,5.92027586 45.5334253,4.58914943 C45.5334253,3.62822989 44.2710805,3.49167816 44.2710805,2.54997701 C44.2710805,1.65682759 44.9154023,1.38473563 45.4353103,1.38473563 C46.5954943,1.38473563 47.1831724,2.88174713 47.1831724,4.00652874 C47.1831724,11.3782989 41.0171034,16.8241839 34.4636322,16.8241839 C33.3267126,16.8241839 32.4669425,16.9506207 31.7447356,16.8241839 L31.7447356,57.5095172 C37.4252874,57.5095172 43.289931,59.2098391 47.5715862,61.3926437 L49.8049655,57.5095172 L51.2615172,58.1882299 L51.2615172,58.1882299 Z" id="Fill-16"></path>
                <path d="M514.536,22.7474943 C514.536,23.3584368 513.812782,23.8156322 513.370759,23.8156322 C512.617195,23.8156322 511.973885,22.3590805 509.876046,22.3590805 C506.789977,22.3590805 504.243034,25.000092 504.243034,28.0881839 C504.243034,36.2155402 512.204506,39.5018851 512.204506,48.7712184 C512.204506,56.5425287 504.624368,61.0497471 496.768092,62.0743908 L495.309517,61.0062529 C499.61646,60.4448736 501.621241,58.9589885 501.621241,53.7214713 C501.621241,46.644046 494.339494,40.8825747 494.339494,32.5549425 C494.339494,25.8173793 500.642115,20.6112184 509.292414,20.6112184 C510.97554,20.6112184 512.651586,21.126069 513.563954,21.5822529 C514.089931,21.8432184 514.536,22.2225287 514.536,22.7474943" id="Fill-17"></path>
            </g>
        </g>
    </g>
</svg>