<?xml version="1.0" encoding="UTF-8"?>
<svg width="850px" height="72px" viewBox="0 0 850 72" version="1.1" xmlns="http://www.w3.org/2000/svg" xmlns:xlink="http://www.w3.org/1999/xlink">
    <!-- Generator: sketchtool 49 (51002) - http://www.bohemiancoding.com/sketch -->
    <title>96E13B5A-3981-405D-9B43-9266D44BD53F</title>
    <desc>Created with sketchtool.</desc>
    <defs></defs>
    <g id="NYD-Style-Guide" stroke="none" stroke-width="1" fill="none" fill-rule="evenodd">
        <g id="LOGOS" transform="translate(-620.000000, -176.000000)">
            <g id="BRAND-/-NYD-/-logo-nyd-full-blackred" transform="translate(620.000000, 176.000000)">
                <path d="M449.779847,18.8891794 C451.08029,18.8891794 452.241506,20.0385463 452.241506,21.3389897 L452.241506,42.700032 C452.241506,44.0715703 451.08029,45.1646537 449.779847,45.1646537 L447.104903,45.1646537 L447.104903,46.9449874 C447.104903,51.5276434 443.363536,55.2719726 438.792729,55.2719726 L409.495723,55.2719726 C404.91603,55.2719726 401.168738,51.5276434 401.168738,46.9449874 L401.168738,34.861824 C398.51453,36.5710629 396.867499,39.4385554 396.867499,42.8511086 L396.867499,55.5533897 C396.867499,56.2317531 397.809506,56.3058103 397.812469,56.9900983 C397.812469,57.940992 396.260231,58.0032 395.703321,58.0032 C395.158261,58.0032 394.000007,57.7365943 394.000007,57.0582309 C393.997045,56.3680183 394.950901,56.2317531 394.950901,55.5533897 L394.950901,41.7550629 C394.950901,37.5278811 397.548825,33.9050057 401.168738,32.3379566 L401.168738,17.8612663 C401.168738,13.2845349 404.91603,9.53724343 409.495723,9.53724343 L438.792729,9.53724343 C443.363536,9.53724343 447.104903,13.2845349 447.104903,17.8612663 L447.104903,18.8891794 L449.779847,18.8891794 Z M442.886608,47.2145554 L442.886608,17.5828114 C442.886608,15.4677394 441.10035,13.690368 438.985278,13.690368 L409.362421,13.690368 C407.238462,13.690368 405.464053,15.4677394 405.464053,17.5828114 L405.464053,31.5203657 L408.876606,31.5203657 L408.876606,20.2577554 C408.876606,18.4033646 410.449579,16.8363154 412.286197,16.8363154 L435.836368,16.8363154 C437.690759,16.8363154 439.257808,18.4033646 439.257808,20.2577554 L439.257808,44.3500251 C439.257808,46.1955291 437.690759,47.7566537 435.836368,47.7566537 L412.286197,47.7566537 C410.449579,47.7566537 408.876606,46.1955291 408.876606,44.3500251 L408.876606,33.6295131 L406.483079,33.6295131 C406.142416,33.6295131 405.816565,33.6295131 405.464053,33.6946834 L405.464053,47.2145554 C405.464053,49.335552 407.238462,51.1099611 409.362421,51.1099611 L438.985278,51.1099611 C441.10035,51.1099611 442.886608,49.335552 442.886608,47.2145554 Z M424.170887,40.6649417 C419.946667,40.6649417 416.465982,37.7204297 416.051262,33.6295131 L413.118599,33.6295131 L413.118599,41.6869303 C413.118599,42.7089189 413.998398,43.5976046 415.035198,43.5976046 L433.111065,43.5976046 C434.210073,43.5976046 435.08691,42.7089189 435.08691,41.6869303 L435.08691,22.980096 C435.08691,21.9610697 434.210073,21.072384 433.111065,21.072384 L415.035198,21.072384 C413.998398,21.072384 413.118599,21.9610697 413.118599,22.980096 L413.118599,31.5203657 L416.104583,31.5203657 C416.655568,27.5568274 420.071083,24.4819749 424.170887,24.4819749 C428.614315,24.4819749 432.231266,28.1700206 432.231266,32.6075246 C432.231266,36.976896 428.614315,40.6649417 424.170887,40.6649417 Z M420.627993,32.6075246 C420.627993,34.447104 422.260213,36.0822857 424.102754,36.0822857 C426.016391,36.0822857 427.586402,34.447104 427.586402,32.6075246 C427.586402,30.6998126 426.016391,29.0646309 424.102754,29.0646309 C422.260213,29.0646309 420.627993,30.6998126 420.627993,32.6075246 Z M449.231824,41.6869303 L449.231824,22.358016 C449.231824,21.1375543 449.294032,20.927232 447.104903,20.927232 L447.104903,43.1888091 C449.14888,43.1888091 449.231824,42.9192411 449.231824,41.6869303 Z M446.847184,61.00992 C447.253017,61.279488 447.104903,62.1652114 447.253017,62.6451017 C447.253017,62.6451017 447.253017,62.7843291 446.90643,63.0568594 L401.174663,63.0568594 L400.816226,62.7191589 L400.816226,60.8736549 C403.695568,60.4026514 401.586421,56.9101166 404.311723,56.9101166 C406.018,56.9101166 406.222398,58.1424274 407.176254,59.1614537 L440.895952,59.1614537 C442.199358,59.1614537 441.497296,56.9101166 443.908597,56.9101166 C444.52179,56.9101166 445.06685,57.318912 445.472683,57.7988023 C445.671157,59.0340754 445.828158,60.18048 446.847184,61.00992 Z M394.610238,61.7001326 C395.158261,60.2545371 394.953863,58.4860526 395.845511,58.5541851 C396.458704,58.6134309 396.597931,60.6011246 396.867499,61.5638674 L396.867499,63.0598217 L394.610238,63.0598217 L394.610238,61.7001326 Z" id="Fill-1" fill="#EC2127"></path>
                <path d="M45.183744,67.5239863 C50.8624457,67.5239863 55.8983314,66.422016 60.2943634,64.224 C64.6874331,62.0348709 67.8600411,59.0281509 69.8092251,55.2275383 C71.7613714,51.429888 72.7300389,45.5230903 72.7300389,37.536768 C72.7300389,29.1327634 71.580672,22.6927543 69.278976,18.2226651 C66.9802423,13.7466514 63.8550309,10.5651566 59.9181531,8.672256 C55.9872,6.77935543 50.1988937,5.831424 42.571008,5.831424 C38.382336,5.831424 35.7636754,6.10691657 34.7031771,6.64605257 C33.6486034,7.18518857 33.1213166,8.17162971 33.1213166,9.605376 L33.1213166,63.0331611 C33.1213166,64.6239086 33.5449234,65.7673509 34.3980617,66.4694126 C35.2423131,67.168512 36.6049646,67.5239863 38.4682423,67.5239863 L45.183744,67.5239863 Z M0,1.35837257 L49.4612846,1.35541029 C58.4488594,1.352448 66.3374263,2.81877943 73.1329097,5.74551771 C79.9283931,8.67818057 85.2516206,12.8490789 89.1055543,18.2641371 C92.959488,23.6732709 94.8849737,29.7785417 94.8849737,36.5532891 C94.8849737,43.59168 93.1224137,49.7147246 89.6032183,54.9194606 C86.0840229,60.1271589 80.8230034,64.2743589 73.8231223,67.3580983 C66.8202789,70.4536869 59.2990354,71.9940754 51.2653166,72 L0.00296228571,72 L0.00296228571,67.5239863 L7.63381029,67.5239863 C9.497088,67.5239863 10.9012114,67.1300023 11.8521051,66.3538834 C12.8000366,65.5807269 13.2828891,64.4876434 13.2828891,63.0894446 L13.2799269,9.93418971 C13.2799269,8.50340571 12.7793006,7.46364343 11.7928594,6.80897829 C10.7975314,6.16023771 9.11495314,5.83438629 6.76586057,5.83438629 L0,5.83438629 L0,1.35837257 Z" id="Fill-3" fill="#000000"></path>
                <path d="M131.720997,18.4537234 L117.285778,44.815104 L146.043648,44.815104 L131.720997,18.4537234 Z M141.585408,0.940690286 L175.435447,63.0953691 C176.410039,64.84608 177.464613,66.0369189 178.605093,66.6560366 C179.659666,67.2455314 181.037129,67.5536091 182.728594,67.5891566 C182.728594,68.0720091 182.72267,71.9911131 182.72267,71.9911131 L144.070766,71.9911131 L144.070766,67.6010057 L148.031342,67.6010057 C151.162478,67.6010057 153.316059,67.3344 154.500974,66.8041509 C155.677001,66.2709394 156.269458,65.5659154 156.269458,64.6861166 C156.269458,63.995904 156.023589,63.2020114 155.534811,62.295552 L148.546779,49.4362697 L114.755986,49.4362697 L111.544869,55.3045577 C110.199991,57.7425189 109.527552,59.5613623 109.527552,60.7551634 C109.527552,62.7784046 110.502144,64.43136 112.457253,65.6992183 C114.415323,66.9670766 117.084343,67.603968 120.467273,67.603968 L123.334766,67.6010057 L123.334766,71.9911131 L89.0581577,71.9911131 L89.0581577,67.603968 L91.0132663,67.603968 C93.2142446,67.603968 95.1515794,67.0707566 96.8252709,65.9984091 C99.1862126,64.5083794 101.025792,62.5769691 102.33216,60.2308389 L134.715867,0.940690286 L141.585408,0.940690286 Z" id="Fill-4" fill="#000000"></path>
                <path d="M183.694299,1.34948571 L230.688,1.34652343 L230.688,5.82846171 L222.18624,5.82846171 C220.35851,5.82846171 219.034368,6.10395429 218.20789,6.660864 C217.381413,7.220736 216.966693,8.04128914 216.966693,9.11363657 L216.969655,63.7441097 C216.969655,65.0178926 217.402149,65.924352 218.273061,66.4605257 C219.389842,67.1625874 221.004288,67.5150994 223.116398,67.5150994 L230.690962,67.5121371 L230.690962,71.9881509 L188.836827,71.9911131 L188.804242,67.5180617 L190.889691,67.5150994 C193.375049,67.5150994 195.116873,67.1981349 196.132937,66.5642057 C197.140114,65.924352 197.649627,64.9882697 197.649627,63.7441097 L197.646665,9.73867886 C197.646665,8.39972571 197.178624,7.42217143 196.248466,6.77935543 C195.318309,6.14542629 193.866789,5.82846171 191.882057,5.831424 L183.694299,5.831424 L183.694299,1.34948571" id="Fill-5" fill="#000000"></path>
                <path d="M237.299822,5.82846171 L237.299822,1.34652343 L284.438674,1.34652343 L284.438674,5.82549943 L276.493824,5.82549943 C274.212864,5.82549943 272.616192,6.15727543 271.709733,6.82971429 C270.794386,7.49622857 270.341157,8.57450057 270.341157,10.0704549 L270.344119,62.5503086 C270.344119,64.6831543 270.782537,66.0369189 271.653449,66.6264137 C272.518437,67.2159086 274.571301,67.5121371 277.806117,67.5121371 L291.041609,67.5121371 C295.96789,67.5121371 300.571282,65.7140297 304.836974,62.1267017 C309.102665,58.5304869 312.373029,52.7955017 314.651026,44.9069349 L320.246784,44.9069349 L318.161335,71.9881509 L237.302784,71.9881509 L237.302784,67.5121371 L245.389824,67.5121371 C247.17312,67.5121371 248.523922,67.1625874 249.427419,66.4575634 C250.34869,65.7614263 250.80192,64.7809097 250.80192,63.5100891 L250.798958,9.54909257 C250.798958,8.24272457 250.333879,7.29479314 249.400759,6.70826057 C248.461714,6.12469029 246.853193,5.82846171 244.578158,5.82846171 L237.299822,5.82846171" id="Fill-6" fill="#000000"></path>
                <path d="M303.106999,1.34356114 L348.832841,1.34356114 L348.832841,5.82253714 L342.514286,5.82253714 C340.280722,5.82253714 338.731447,6.038784 337.857573,6.46239086 C336.995547,6.89192229 336.554167,7.45771886 336.554167,8.15978057 C336.554167,8.95663543 336.930377,9.86013257 337.673911,10.8791589 L356.819163,36.1741166 L370.330149,15.6454766 C371.452855,13.9628983 372.015689,12.4017737 372.015689,10.973952 C372.015689,9.37728 371.284005,8.12719543 369.82656,7.20592457 C368.37504,6.28169143 366.168137,5.81957486 363.205851,5.82253714 L360.400567,5.82253714 L360.400567,1.34356114 L395.900599,1.34356114 L395.900599,5.81957486 C391.812645,5.88474514 388.515621,6.50978743 386.03915,7.70655086 C383.553792,8.900352 381.435758,10.8139886 379.699858,13.4504229 L361.218158,41.4588343 L361.218158,63.643392 C361.218158,64.9527223 361.692123,65.9184274 362.625243,66.5582811 C363.555401,67.1922103 365.012846,67.5091749 367.000539,67.5091749 L376.512439,67.5091749 L376.512439,71.9822263 L326.159506,71.9881509 L326.159506,67.5121371 L335.615122,67.5121371 C337.762779,67.5121371 339.27947,67.1981349 340.150382,66.5790171 C341.018331,65.9539749 341.459712,64.9823451 341.459712,63.643392 L341.45675,43.9323429 L316.712777,11.264256 C315.142766,9.16399543 313.474999,7.73321143 311.715401,6.96894171 C309.952841,6.19874743 307.754825,5.82253714 305.097655,5.82253714 L303.106999,5.82253714 L303.106999,1.34356114" id="Fill-7" fill="#000000"></path>
                <path d="M460.362322,1.34059886 L488.844699,1.34059886 L538.605175,49.7473097 L538.605175,16.8866743 C538.605175,13.6311223 537.399525,11.0331977 534.991186,9.08105143 C532.594697,7.13186743 529.176219,6.038784 524.732791,5.81661257 L524.732791,1.33763657 L558.292526,1.33763657 L558.292526,5.81365029 C553.597303,6.19282286 550.255845,7.27109486 548.220754,9.03957943 C546.185664,10.808064 545.172562,13.4237623 545.172562,16.8896366 L545.175525,71.979264 L538.057152,71.979264 L481.391589,16.1905371 L481.391589,54.8128183 C481.391589,59.2325486 482.703881,62.4495909 485.337353,64.472832 C487.964901,66.4960731 491.238226,67.5062126 495.133632,67.5062126 L496.676983,67.5062126 L496.676983,71.979264 L459.612864,71.9822263 L459.609902,67.5091749 L462.157467,67.5091749 C465.792192,67.5091749 468.840384,66.3923931 471.331666,64.1647543 C473.811099,61.9311909 475.04341,59.0755474 475.04341,55.5741257 L475.04341,9.94307657 C472.273673,7.19111314 468.748553,5.81957486 464.447314,5.81957486 L460.362322,5.81957486 L460.362322,1.34059886" id="Fill-8" fill="#000000"></path>
                <path d="M562.58784,1.33763657 L642.637687,1.33467429 L644.423945,26.0253257 L638.973339,26.0253257 C637.687707,20.2073966 636.079186,16.0216869 634.150738,13.4652343 C632.225253,10.9087817 629.695461,8.98922057 626.561362,7.71247543 C623.430226,6.44757943 619.330423,5.81365029 614.25899,5.81365029 L601.698898,5.81365029 C599.74379,5.81365029 598.336704,6.100992 597.459867,6.69048686 C596.585993,7.27701943 596.162386,8.10053486 596.162386,9.149184 L596.162386,33.5613806 L600.448814,33.5613806 C605.389906,33.5613806 609.211255,32.4742217 611.930633,30.3087909 C614.638162,28.1403977 616.252608,24.6478629 616.741385,19.8371109 L622.340105,19.8371109 L622.340105,52.7332937 L616.741385,52.7332937 C616.371099,47.2856503 614.815899,43.4554149 612.087634,41.2307383 C609.344558,39.0060617 605.218094,37.8863177 599.699355,37.8863177 L596.162386,37.8863177 L596.162386,64.01664 C596.162386,65.15712 596.585993,65.9717486 597.459867,66.4457143 C598.795858,67.147776 600.697646,67.5032503 603.180041,67.5032503 L614.25899,67.5032503 C621.845403,67.5032503 628.042505,65.6370103 632.853257,61.9163794 C637.664009,58.1838994 640.644069,52.5644434 641.814171,45.0461623 L647.404005,45.0461623 L646.053202,71.9763017 L562.590802,71.979264 L562.58784,67.5032503 L570.837806,67.5032503 C572.689234,67.5032503 574.108169,67.1418514 575.082761,66.4072046 C576.048466,65.6725577 576.537243,64.6861166 576.537243,63.4478811 L576.537243,9.15807086 C576.537243,8.00574171 576.048466,7.16741486 575.082761,6.62531657 C574.108169,6.080256 572.366345,5.81365029 569.842478,5.81365029 L562.58784,5.81365029 L562.58784,1.33763657" id="Fill-9" fill="#000000"></path>
                <path d="M648.846638,0.937728 L685.401243,0.937728 L685.401243,5.36042057 L681.953143,5.36042057 C679.781787,5.36042057 678.324343,5.55593143 677.565998,5.95287771 C676.801728,6.34389943 676.437367,6.930432 676.437367,7.71247543 C676.437367,8.28123429 676.573632,8.92701257 676.855049,9.646848 L694.874633,50.8107703 L710.562898,14.893056 L707.938313,8.89146514 C707.354743,7.63249371 706.557888,6.76750629 705.538862,6.29946514 C704.182135,5.66849829 702.422537,5.36042057 700.200823,5.36042057 L695.775168,5.36042057 L695.775168,0.937728 L737.792229,0.934765714 L737.792229,5.35745829 L733.911634,5.35745829 C731.088576,5.35745829 729.166053,5.603328 728.167762,6.09506743 C727.16651,6.598656 726.656997,7.324416 726.656997,8.28715886 C726.656997,8.68706743 726.757714,9.11956114 726.968037,9.58464 L744.913563,50.8107703 L759.932352,14.5464686 C760.430016,13.4474606 760.672923,12.3810377 760.672923,11.3442377 C760.672923,9.42763886 760.000485,7.94945829 758.664494,6.91265829 C757.343314,5.87882057 755.583717,5.35745829 753.415323,5.35745829 L750.844059,5.35745829 L750.844059,0.934765714 L780.460992,0.934765714 L780.460992,5.35745829 C777.178779,5.41966629 774.563081,6.00916114 772.616859,7.12298057 C770.661751,8.23976229 769.233929,9.89568 768.333394,12.093696 L743.204325,71.9733394 L735.632722,71.9733394 L714.274642,22.9623223 L692.860279,71.9733394 L685.247205,71.9733394 L657.549833,8.89442743 C656.984037,7.573248 656.240503,6.65790171 655.295534,6.13950171 C654.368338,5.62702629 653.171575,5.36338286 651.708206,5.36338286 L648.846638,5.36338286 L648.846638,0.937728" id="Fill-10" fill="#000000"></path>
                <path d="M834.481234,7.241472 L840.079954,1.10065371 L844.42859,1.10065371 L844.938103,24.846336 L839.499346,24.846336 C836.688137,18.0212297 832.683127,12.9201737 827.508014,9.522432 C822.321051,6.13357714 816.591991,4.42730057 810.31787,4.42730057 C804.970944,4.42730057 800.625271,5.55296914 797.263077,7.79838171 C793.906807,10.0437943 792.236078,12.7276251 792.236078,15.8498743 C792.236078,17.7042651 792.881856,19.4075794 794.214885,20.9538926 C795.541989,22.5061303 797.674834,23.8273097 800.625271,24.9233554 C803.554971,26.0223634 808.72416,27.168768 816.109138,28.3536823 C824.723465,29.7578057 830.689509,31.0078903 833.995419,32.1217097 C839.229778,33.9109303 843.166656,36.2837211 845.782354,39.2311954 C848.401015,42.1845943 849.707383,45.7808091 849.707383,50.0050286 C849.707383,56.3324709 846.872475,61.3890926 841.199698,65.1541577 C834.37163,69.6953417 825.926153,71.9674149 815.833646,71.9674149 C806.543918,71.9674149 798.065856,69.4672457 790.384649,64.4817189 L783.325522,71.2475794 L778.908754,71.2475794 L778.905792,45.8370926 L784.187547,45.8370926 C789.451529,60.3641417 800.127607,67.6306286 816.218743,67.6306286 C822.803904,67.6306286 827.913847,66.4546011 831.566345,64.1232823 C835.22773,61.7919634 837.046574,58.8681874 837.046574,55.3786149 C837.046574,52.9317669 836.23787,50.8818651 834.635273,49.2348343 C833.029714,47.5759543 830.538432,46.2340389 827.1792,45.2150126 C825.330734,44.6610651 820.765851,43.7812663 813.463817,42.5726537 C803.640878,40.8989623 796.635072,39.1808366 792.413815,37.4005029 C788.222181,35.6231314 785.138441,33.4428891 783.159634,30.8627383 C781.192677,28.2825874 780.206235,25.1396023 780.206235,21.4278583 C780.206235,15.1803977 782.940425,10.0911909 788.388069,6.14542629 C793.835712,2.202624 801.140709,0.235666286 810.300096,0.235666286 C819.101047,0.235666286 827.164389,2.57290971 834.481234,7.241472" id="Fill-11" fill="#000000"></path>
            </g>
        </g>
    </g>
</svg>